<?xml version="1.0" encoding="iso-8859-1"?>
<!-- Generator: Adobe Illustrator 19.0.0, SVG Export Plug-In . SVG Version: 6.00 Build 0)  -->
<svg version="1.1" id="Layer_1" xmlns="http://www.w3.org/2000/svg" xmlns:xlink="http://www.w3.org/1999/xlink" x="0px" y="0px"
	 viewBox="0 0 512 512" style="enable-background:new 0 0 512 512;" xml:space="preserve">
<circle style="fill:#88C5CC;" cx="256" cy="256" r="256"/>
<path style="fill:#80B9BF;" d="M446.008,427.536c-0.484-1.208-0.988-2.408-1.544-3.58c-1.372-4.488-3.128-8.788-5.252-12.88
	c-0.044-0.104-0.088-0.208-0.132-0.312c-0.704-1.844-1.472-3.644-2.312-5.42c-1.248-4.064-2.776-7.98-4.644-11.712
	c-0.2-0.604-0.428-1.196-0.644-1.796c-0.18-0.5-0.348-1.012-0.54-1.508c-0.708-1.86-1.484-3.676-2.328-5.464
	c-1.252-4.084-2.792-8.024-4.672-11.768c-0.168-0.508-0.364-1-0.54-1.5c-0.204-0.572-0.392-1.148-0.604-1.716
	c-0.708-1.88-1.496-3.712-2.348-5.52c-1.368-4.452-3.112-8.728-5.228-12.78c-0.044-0.112-0.092-0.224-0.144-0.336
	c-0.696-1.828-1.46-3.624-2.292-5.388c-1.248-4.068-2.78-8-4.656-11.74c-0.204-0.624-0.444-1.244-0.664-1.86
	c-0.176-0.484-0.336-0.976-0.524-1.456c-0.704-1.844-1.472-3.652-2.312-5.424c-1.252-4.084-2.792-8.028-4.676-11.78
	c-0.16-0.5-0.352-0.984-0.528-1.476c-0.216-0.6-0.416-1.212-0.64-1.808c-0.704-1.848-1.476-3.656-2.316-5.436
	c-1.252-4.088-2.804-8.048-4.688-11.808c-0.944-2.896-2.084-5.704-3.356-8.432c-1.436-4.924-3.376-9.64-5.748-14.096
	c-0.624-1.592-1.324-3.152-2.052-4.692c-1.252-4.076-2.784-8.004-4.66-11.744c-0.184-0.564-0.408-1.112-0.596-1.668
	c-0.192-0.532-0.368-1.076-0.572-1.6c-0.708-1.868-1.488-3.688-2.336-5.488c-1.252-4.08-2.792-8.012-4.668-11.76
	c-1.212-3.708-2.676-7.304-4.416-10.744c-0.888-2.608-1.908-5.152-3.06-7.632c-1.076-3.648-2.456-7.156-4.04-10.564
	c-1.308-4.468-3.028-8.76-5.092-12.848c-1.068-3.144-2.304-6.2-3.752-9.148c-1.044-2.952-2.248-5.82-3.628-8.584
	c-1.2-3.676-2.652-7.24-4.384-10.652c-0.892-2.644-1.92-5.22-3.088-7.728c-1.312-4.476-3.032-8.78-5.108-12.88
	c-1.284-3.784-2.812-7.46-4.644-10.96c-7.2-17.976-21.096-32.524-38.576-40.676V89.18v-2.048c0-1.636-1.508-2.56-3.184-2.928
	c-0.26-0.1-0.528-0.156-0.796-0.172c0.012-0.576,0.02-1.148-0.02-1.684v-1.36V78.94v-2.048c0-1.856-2.04-4.02-4-4.672v-1.476v-2.048
	V66.64c0-1.808-2.032-2.636-3.98-2.636c-0.008,0-0.012,0-0.02,0v-1.46v-2.048v-2.048V56.4c0-1.776-2.048-3.516-4-4.136v-2.012
	v-2.048v-2.048c0-1.74-2.048-2.068-4-2.128V42.06V40c0-2.208-1.788-4-4-4h-16c-2.212,0-4,1.792-4,4v2.048v2.048V64v2.048v2.048
	c0,2.208,4,4,4,4v0.096v2.048v2.048v2.048v6.088c-38.16,4.012-68,36.368-68,75.572c0,5.932,0.704,11.696,2,17.232
	c0.132,0.64,0.26,1.28,0.416,1.916c1.272,6.072,3.284,11.88,5.94,17.328c1.112,3.512,2.464,6.916,4.06,10.188
	c1.116,3.52,2.472,6.932,4.076,10.212c1.108,3.512,2.468,6.92,4.064,10.196c0.14,0.436,0.276,0.872,0.42,1.308l-72.348,172.532
	c-0.944,2.256-0.712,4.664,0.336,6.68c0.132,0.656,0.392,1.264,0.688,1.868c0.112,0.592,0.276,1.176,0.528,1.732l-7.96,15.916
	c-0.448,0.908-0.128,1.96,0.68,2.52c-0.172,0.784,0.132,1.58,0.804,2.04c-0.18,0.824,0.16,1.668,0.9,2.112
	c-0.148,0.78,0.152,1.556,0.82,2c-0.172,0.788,0.128,1.584,0.804,2.044c-0.172,0.784,0.132,1.584,0.804,2.044
	c-0.172,0.784,0.132,1.58,0.804,2.048c-0.18,0.82,0.164,1.664,0.908,2.116c-0.152,0.776,0.148,1.556,0.816,2
	c-0.172,0.784,0.128,1.584,0.804,2.04c-0.172,0.784,0.128,1.584,0.8,2.04c-0.172,0.788,0.14,1.584,0.808,2.048
	c-0.18,0.82,0.168,1.668,0.904,2.116c-0.148,0.768,0.152,1.548,0.816,2c-0.172,0.788,0.128,1.584,0.804,2.048
	c-0.168,0.78,0.136,1.58,0.804,2.04c-0.168,0.78,0.132,1.58,0.8,2.04c-0.18,0.82,0.168,1.672,0.908,2.12
	c-0.148,0.776,0.152,1.56,0.82,2c-0.172,0.784,0.132,1.584,0.804,2.044c-0.172,0.78,0.132,1.58,0.804,2.04
	c-0.176,0.78,0.132,1.58,0.8,2.044c-0.18,0.82,0.172,1.668,0.912,2.12c-0.148,0.768,0.152,1.548,0.812,1.992
	c-0.176,0.784,0.128,1.584,0.8,2.044c-0.172,0.784,0.136,1.584,0.808,2.044c-0.18,0.824,0.164,1.668,0.908,2.116
	c-0.152,0.772,0.144,1.556,0.816,2c-0.172,0.788,0.124,1.584,0.8,2.044c-0.02,0.084,0.028,0.16,0.02,0.248
	C179.412,503.1,216.664,512,256,512C331.392,512,399.16,479.4,446.008,427.536z"/>
<rect x="248" y="64" style="fill:#E6B773;" width="16" height="24"/>
<g>
	<path style="fill:#263740;" d="M268,64c0,2.208-1.788,4-4,4h-16c-2.212,0-4-1.792-4-4V40c0-2.208,1.788-4,4-4h16
		c2.212,0,4,1.792,4,4V64z"/>
	<path style="fill:#263740;" d="M256,84c-41.908,0-76,34.092-76,76c0,27.22,14.432,51.076,36,64.5v-19.908
		C203.756,193.6,196,177.708,196,160c0-33.084,26.916-60,60-60s60,26.916,60,60c0,17.708-7.756,33.6-20,44.592V224.5
		c21.568-13.424,36-37.28,36-64.5C332,118.092,297.908,84,256,84z"/>
	<circle style="fill:#263740;" cx="256" cy="156" r="16"/>
</g>
<g>
	<path style="fill:#CC584C;" d="M388,430c-0.732,0-1.436-0.408-1.788-1.1l-12-24c-0.492-0.992-0.088-2.192,0.9-2.688
		c0.996-0.484,2.188-0.088,2.684,0.9l12,24c0.492,0.984,0.088,2.188-0.9,2.684C388.604,429.928,388.3,430,388,430z"/>
	<path style="fill:#CC584C;" d="M136,402.004c-0.732,0-1.436,0.404-1.788,1.104l-12,24c-0.492,0.984-0.088,2.188,0.9,2.684
		c0.996,0.48,2.188,0.088,2.684-0.896l12-24c0.492-0.992,0.088-2.192-0.9-2.688C136.604,402.072,136.3,402.004,136,402.004z"/>
	<path style="fill:#CC584C;" d="M380,268c0,2.2-1.8,4-4,4H200c-2.2,0-4-1.8-4-4l0,0c0-2.2,1.8-4,4-4h176
		C378.2,264,380,265.8,380,268L380,268z"/>
</g>
<polygon style="fill:#B34D43;" points="319.968,272 337.32,272 333.964,264 316.612,264 "/>
<g>
	<path style="fill:#E6B773;" d="M135.996,412c-1.032,0-2.084-0.2-3.088-0.624c-4.076-1.708-5.992-6.396-4.28-10.468l104-248
		c1.708-4.076,6.388-5.996,10.472-4.284c4.076,1.708,5.988,6.396,4.28,10.472l-104,248C142.092,410.16,139.124,412,135.996,412z"/>
	<path style="fill:#E6B773;" d="M376.004,412c-3.128,0-6.096-1.844-7.384-4.908l-104-248c-1.712-4.076,0.212-8.76,4.28-10.472
		c4.084-1.712,8.76,0.208,10.472,4.284l104,248c1.712,4.076-0.212,8.756-4.28,10.468C378.084,411.8,377.036,412,376.004,412z"/>
</g>
<g>
</g>
<g>
</g>
<g>
</g>
<g>
</g>
<g>
</g>
<g>
</g>
<g>
</g>
<g>
</g>
<g>
</g>
<g>
</g>
<g>
</g>
<g>
</g>
<g>
</g>
<g>
</g>
<g>
</g>
</svg>
