<?xml version="1.0" encoding="iso-8859-1"?>
<!-- Generator: Adobe Illustrator 19.0.0, SVG Export Plug-In . SVG Version: 6.00 Build 0)  -->
<svg version="1.1" id="Layer_1" xmlns="http://www.w3.org/2000/svg" xmlns:xlink="http://www.w3.org/1999/xlink" x="0px" y="0px"
	 viewBox="0 0 512 512" style="enable-background:new 0 0 512 512;" xml:space="preserve">
<path style="fill:#88C5CC;" d="M256,0C114.616,0,0,114.616,0,256s114.616,256,256,256s256-114.616,256-256S397.384,0,256,0z"/>
<path style="fill:#2D4452;" d="M256,0C114.616,0,0,114.616,0,256s114.616,256,256,256s256-114.616,256-256S397.384,0,256,0z"/>
<path style="fill:#FFF1CC;" d="M256,512c141.384,0,256-114.616,256-256c0-35.484-7.228-69.276-20.276-100H164c-8.8,0-16,7.2-16,16
	v316.1C180.824,503.408,217.4,512,256,512z"/>
<path style="fill:#CCC1A3;" d="M457.412,381.244l-48.424-48.424c0.968-0.696,1.948-1.332,2.928-1.852
	c8.36-4.432,11.792-15.012,7.636-23.512c-4.152-8.5-4.152-22.408,0-30.908c4.156-8.5,0.724-19.08-7.636-23.512
	c-8.356-4.432-16.528-15.684-18.16-25c-1.636-9.316-10.636-15.856-20-14.532c-9.368,1.328-22.588-2.972-29.392-9.548
	c-6.8-6.584-17.92-6.584-24.728,0c-6.796,6.576-20.024,10.872-29.388,9.548c-9.368-1.324-18.368,5.216-20,14.532
	c-1.636,9.316-9.808,20.568-18.164,25c-8.36,4.432-11.792,15.012-7.636,23.512c4.152,8.5,4.152,22.408,0,30.908
	c-4.156,8.5-0.724,19.08,7.636,23.512c0.98,0.52,1.96,1.156,2.928,1.852l-48.424,48.424c-3.112,3.112-2.252,6.796,1.928,8.188
	l35.736,11.916c4.176,1.392,8.728,5.944,10.116,10.12l11.916,35.732c1.392,4.176,5.076,5.048,8.188,1.932L332,391.592l57.528,57.532
	c3.112,3.108,6.796,2.244,8.188-1.932l11.916-35.732c1.396-4.18,5.94-8.728,10.116-10.12l35.736-11.912
	C459.656,388.036,460.524,384.352,457.412,381.244z"/>
<g>
	<path style="fill:#263740;" d="M441.412,373.244c3.112,3.112,2.252,6.796-1.928,8.188l-35.736,11.916
		c-4.176,1.392-8.728,5.944-10.116,10.12L381.716,439.2c-1.392,4.176-5.076,5.048-8.188,1.932l-79.196-79.2
		c-3.108-3.108-3.108-8.204,0-11.308l56.572-56.568c3.108-3.116,8.208-3.116,11.312,0L441.412,373.244z"/>
	<path style="fill:#263740;" d="M190.588,373.244c-3.112,3.112-2.252,6.796,1.928,8.188l35.736,11.916
		c4.176,1.392,8.728,5.944,10.116,10.12l11.916,35.732c1.392,4.176,5.076,5.048,8.188,1.932l79.196-79.2
		c3.108-3.108,3.108-8.204,0-11.308l-56.572-56.568c-3.108-3.116-8.208-3.116-11.312,0L190.588,373.244z"/>
</g>
<path style="fill:#CC584C;" d="M303.636,195.96c6.8-6.584,17.92-6.584,24.728,0c6.796,6.576,20.024,10.872,29.388,9.548
	c9.368-1.324,18.368,5.216,20,14.532c1.636,9.316,9.808,20.568,18.164,25c8.36,4.432,11.792,15.016,7.636,23.516
	c-4.152,8.5-4.152,22.404,0,30.904c4.156,8.5,0.724,19.08-7.636,23.512c-8.356,4.428-16.528,15.684-18.164,25
	c-1.632,9.312-10.632,15.856-20,14.532c-9.364-1.328-22.584,2.972-29.388,9.548c-6.8,6.584-17.92,6.584-24.728,0
	c-6.796-6.576-20.024-10.872-29.388-9.548c-9.368,1.324-18.368-5.22-20-14.532c-1.636-9.316-9.808-20.572-18.164-25
	c-8.36-4.432-11.792-15.012-7.636-23.512c4.152-8.5,4.152-22.404,0-30.904c-4.156-8.5-0.724-19.084,7.636-23.516
	c8.356-4.432,16.528-15.684,18.164-25c1.632-9.316,10.632-15.856,20-14.532C283.612,206.832,296.84,202.536,303.636,195.96z"/>
<circle style="fill:#F2CF61;" cx="316" cy="284" r="60"/>
<g>
</g>
<g>
</g>
<g>
</g>
<g>
</g>
<g>
</g>
<g>
</g>
<g>
</g>
<g>
</g>
<g>
</g>
<g>
</g>
<g>
</g>
<g>
</g>
<g>
</g>
<g>
</g>
<g>
</g>
</svg>
