<?xml version="1.0" encoding="iso-8859-1"?>
<!-- Generator: Adobe Illustrator 19.0.0, SVG Export Plug-In . SVG Version: 6.00 Build 0)  -->
<svg version="1.1" id="Layer_1" xmlns="http://www.w3.org/2000/svg" xmlns:xlink="http://www.w3.org/1999/xlink" x="0px" y="0px"
	 viewBox="0 0 512 512" style="enable-background:new 0 0 512 512;" xml:space="preserve">
<circle style="fill:#88C5CC;" cx="256" cy="256" r="256"/>
<path style="fill:#F5F5F5;" d="M192,72h176c4.4,0,8,3.6,8,8v328c0,4.4-3.6,8-8,8H120c-4.4,0-8-3.6-8-8V156L192,72z"/>
<path style="fill:#E6E6E6;" d="M184,156c4.4,0,8-3.6,8-8V72l-80,84H184z"/>
<g>
	<rect x="124" y="168" style="fill:#B3B3B3;" width="4" height="236"/>
	<rect x="120" y="396" style="fill:#B3B3B3;" width="236" height="4"/>
</g>
<path style="fill:#E16B5A;" d="M144,196h-12v192h192v-12C224.584,376,144,295.416,144,196z"/>
<g>
	<path style="fill:#406A80;" d="M260,231.4V168h43.46v10.728H272.8v15.008h26.464v10.724H272.8v26.94H260z"/>
	<path style="fill:#406A80;" d="M308.084,231.4l16.564-23.656l-15.876-22.268h14.836l8.132,12.628l8.56-12.628h14.268
		l-15.572,21.752l16.996,24.172H341.08l-9.336-14.232l-9.428,14.232L308.084,231.4L308.084,231.4z"/>
</g>
<g>
</g>
<g>
</g>
<g>
</g>
<g>
</g>
<g>
</g>
<g>
</g>
<g>
</g>
<g>
</g>
<g>
</g>
<g>
</g>
<g>
</g>
<g>
</g>
<g>
</g>
<g>
</g>
<g>
</g>
</svg>
