<?xml version="1.0" encoding="iso-8859-1"?>
<!-- Generator: Adobe Illustrator 19.0.0, SVG Export Plug-In . SVG Version: 6.00 Build 0)  -->
<svg version="1.1" id="Layer_1" xmlns="http://www.w3.org/2000/svg" xmlns:xlink="http://www.w3.org/1999/xlink" x="0px" y="0px"
	 viewBox="0 0 512 512" style="enable-background:new 0 0 512 512;" xml:space="preserve">
<circle style="fill:#88C5CC;" cx="256" cy="256" r="256"/>
<path style="fill:#80B9BF;" d="M486.056,368.352l-94.804-233.32c-2.784-7.14-6.984-13.868-12.696-19.584
	c-1.076-1.072-2.184-2.076-3.312-3.044c-0.976-0.852-1.976-1.648-2.992-2.432c0-0.004-0.008-0.012-0.016-0.016l0,0
	c-21.172-16.376-49.712-17.68-67.224-0.168l-33.94,33.94l-8.484-8.484c-1.556-1.556-4.096-1.556-5.66,0
	c-1.436,1.436-1.484,3.692-0.264,5.256c0.072,0.74,0.352,1.436,0.828,2.052c0.072,0.736,0.348,1.432,0.824,2.044
	c0.076,0.74,0.352,1.44,0.832,2.056c0.072,0.74,0.348,1.436,0.828,2.048c0.072,0.74,0.348,1.436,0.828,2.052
	c0.072,0.74,0.348,1.436,0.828,2.048c0.008,0.108,0.04,0.212,0.06,0.316l-78.3,78.3l0,0L155.108,259.7
	c-16.972,16.968,8.484,59.396-11.316,79.2l68.952,169.392C226.812,510.684,241.248,512,256,512
	C357.072,512,444.436,453.408,486.056,368.352z"/>
<path style="fill:#263740;" d="M164,392c0,7.808-7.636,16-16,16c-8.368,0-16-8.192-16-16s7.632-28,16-28
	C156.364,364,164,384.192,164,392z"/>
<path style="fill:#1E2C33;" d="M148,364c-1.364,0-2.704,0.58-4,1.512c6.648,4.788,12,19.956,12,26.488
	c0,6.528-5.36,13.256-12,15.312c1.3,0.408,2.632,0.688,4,0.688c8.364,0,16-8.192,16-16S156.364,364,148,364z"/>
<path style="fill:#CC584C;" d="M262.584,152.22l42.42-42.428c19.32-19.32,52.08-15.804,73.54,5.66
	c21.48,21.48,22.148,57.048,2.828,76.368l-39.592,39.596L262.584,152.22z"/>
<path style="fill:#BF5347;" d="M378.556,115.448c-2.008-2.008-4.14-3.804-6.328-5.492c16.404,21.644,15.508,52.876-2.164,70.544
	l-39.592,39.596l11.312,11.316l39.6-39.596C400.7,172.496,400.032,136.928,378.556,115.448z"/>
<path style="fill:#E6E6E6;" d="M268.244,146.56L155.104,259.7c-16.972,16.968,8.484,59.396-11.316,79.2
	c2.828,2.828,5.656,5.656,5.656,5.656s2.832,2.824,5.66,5.656c19.8-19.796,62.224,5.656,79.196-11.312l113.136-113.144
	L268.244,146.56z"/>
<path style="fill:#D9D9D9;" d="M336.124,214.444L222.984,327.58c-16.968,16.976-59.396-8.484-79.196,11.32
	c2.828,2.828,5.656,5.656,5.656,5.656s2.832,2.824,5.66,5.656c19.8-19.796,62.224,5.656,79.196-11.312l113.136-113.144
	L336.124,214.444z"/>
<g>
	<path style="fill:#263740;" d="M358.752,237.072c-1.556,1.556-4.096,1.556-5.656,0l-96.168-96.168c-1.556-1.556-1.556-4.1,0-5.656
		l0,0c1.556-1.556,4.1-1.556,5.66,0l96.164,96.168C360.308,232.968,360.308,235.516,358.752,237.072L358.752,237.072z"/>
	<path style="fill:#263740;" d="M143.792,338.9c2.828,2.828,5.656,5.656,5.656,5.656s2.832,2.824,5.66,5.656
		c19.8-19.796,62.224,5.656,79.196-11.312l28.28-28.288c-42.424,0-45.252-73.536-79.192-79.192l-28.284,28.284
		C138.136,276.668,163.588,319.092,143.792,338.9z"/>
</g>
<path style="fill:#1E2C33;" d="M222.988,327.58c-16.968,16.976-59.396-8.484-79.196,11.32c2.828,2.828,5.656,5.656,5.656,5.656
	s2.832,2.824,5.66,5.656c19.8-19.796,62.224,5.656,79.196-11.312l28.28-28.288c-6.768,0-12.524-1.884-17.568-5.056L222.988,327.58z"
	/>
<g>
</g>
<g>
</g>
<g>
</g>
<g>
</g>
<g>
</g>
<g>
</g>
<g>
</g>
<g>
</g>
<g>
</g>
<g>
</g>
<g>
</g>
<g>
</g>
<g>
</g>
<g>
</g>
<g>
</g>
</svg>
