<?xml version="1.0" encoding="iso-8859-1"?>
<!-- Generator: Adobe Illustrator 19.0.0, SVG Export Plug-In . SVG Version: 6.00 Build 0)  -->
<svg version="1.1" id="Layer_1" xmlns="http://www.w3.org/2000/svg" xmlns:xlink="http://www.w3.org/1999/xlink" x="0px" y="0px"
	 viewBox="0 0 512 512" style="enable-background:new 0 0 512 512;" xml:space="preserve">
<circle style="fill:#4AB8A1;" cx="256" cy="256" r="256"/>
<path style="fill:#43A691;" d="M502.512,325.004L436,156v-1.952V152c0-2.2-1.8-4-4-4H80c-2.2,0-4,1.8-4,4v2.048v2.048V160v2.048
	v2.048c0,1.548,1.716,2.836,3.5,3.472c0.168,0.092,0.332,0.204,0.5,0.264v0.36v2.048v2.048v2.048c0,1.66,2.048,4.036,4,5.1v1.048
	v2.048v2.048V328v2.048V332h-4c-2.2,0-4,1.8-4,4v2.048v2.048V344v2.048V348l48.92,127.9C163.264,498.804,208.084,512,256,512
	C373.464,512,472.384,432.856,502.512,325.004z"/>
<rect x="84" y="164" style="fill:#E6E6E6;" width="344" height="168"/>
<g>
	<rect x="84" y="164" style="fill:#CCCCCC;" width="344" height="4"/>
	<rect x="84" y="328" style="fill:#CCCCCC;" width="344" height="4"/>
</g>
<g>
	<path style="fill:#263740;" d="M436,160c0,2.2-1.8,4-4,4H80c-2.2,0-4-1.8-4-4v-8c0-2.2,1.8-4,4-4h352c2.2,0,4,1.8,4,4V160z"/>
	<path style="fill:#263740;" d="M436,344c0,2.2-1.8,4-4,4H80c-2.2,0-4-1.8-4-4v-8c0-2.2,1.8-4,4-4h352c2.2,0,4,1.8,4,4V344z"/>
</g>
<rect x="252" y="348" style="fill:#B3B3B3;" width="8" height="68"/>
<path style="fill:#263740;" d="M264,412h-16c-4.4,0-8,3.6-8,8v24c0,4.4,3.6,8,8,8h16c4.4,0,8-3.6,8-8v-24
	C272,415.6,268.4,412,264,412z M264,444h-16v-24h16V444z"/>
<g>
</g>
<g>
</g>
<g>
</g>
<g>
</g>
<g>
</g>
<g>
</g>
<g>
</g>
<g>
</g>
<g>
</g>
<g>
</g>
<g>
</g>
<g>
</g>
<g>
</g>
<g>
</g>
<g>
</g>
</svg>
